<svg xmlns="http://www.w3.org/2000/svg" width="53.074" height="46.944" viewBox="0 0 53.074 46.944">
    <defs>
        <style>
            .cls-1{fill:#ff9f0e}.cls-2{fill:#e1e4fb}.cls-3{fill:#c5c9f7}
        </style>
    </defs>
    <g id="advertencia" transform="translate(0 -29.569)">
        <path id="Trazado_2613" d="M51.981 64.745L33.23 33.367a7.8 7.8 0 0 0-13.386 0L1.094 64.745a7.774 7.774 0 0 0-.062 7.845 7.68 7.68 0 0 0 6.755 3.922h37.5a7.68 7.68 0 0 0 6.755-3.922 7.773 7.773 0 0 0-.061-7.845z" class="cls-1"/>
        <path id="Trazado_2614" d="M281.505 72.591a7.68 7.68 0 0 1-6.755 3.922H256V29.57a7.772 7.772 0 0 1 6.693 3.8l18.75 31.379a7.774 7.774 0 0 1 .062 7.842z" class="cls-1" transform="translate(-229.463 -.001)"/>
        <path id="Trazado_2615" d="M34.675 100.316a4.55 4.55 0 0 1-4.049-2.35 4.64 4.64 0 0 1 .049-4.739l18.732-31.354a4.686 4.686 0 0 1 8.05.021l18.736 31.357a4.629 4.629 0 0 1 .033 4.715 4.55 4.55 0 0 1-4.049 2.35h-37.5z" class="cls-1" transform="translate(-26.889 -26.916)"/>
        <path id="Trazado_2616" d="M274.75 100.315a4.55 4.55 0 0 0 4.049-2.35 4.63 4.63 0 0 0-.033-4.715L260.03 61.894A4.688 4.688 0 0 0 256 59.6v40.718z" class="cls-1" transform="translate(-229.462 -26.915)"/>
        <path id="Trazado_2617" d="M232.195 125.177v12.452a3.113 3.113 0 0 1-6.226 0v-12.452a3.113 3.113 0 1 1 6.226 0z" class="cls-2" transform="translate(-202.545 -82.907)"/>
        <path id="Trazado_2618" d="M259.113 125.177v12.452a3.122 3.122 0 0 1-3.113 3.113v-18.678a3.122 3.122 0 0 1 3.113 3.113z" class="cls-3" transform="translate(-229.463 -82.907)"/>
        <path id="Trazado_2619" d="M215.624 332.278a4.669 4.669 0 1 0 4.669 4.669 4.663 4.663 0 0 0-4.669-4.669z" class="cls-2" transform="translate(-189.086 -271.33)"/>
        <path id="Trazado_2620" d="M260.669 336.947a4.663 4.663 0 0 1-4.669 4.67v-9.339a4.663 4.663 0 0 1 4.669 4.669z" class="cls-3" transform="translate(-229.463 -271.33)"/>
    </g>
</svg>
