<svg xmlns="http://www.w3.org/2000/svg" width="39.699" height="34.047" viewBox="0 0 39.699 34.047">
    <g>
        <g>
            <path fill="#fff" d="M37.313 46.078a2.838 2.838 0 0 0-.491-.036H8.815l.611-.284a5.681 5.681 0 0 0 1.6-1.136l7.854-7.854A2.94 2.94 0 0 0 19.3 33a2.84 2.84 0 0 0-4.261-.369l-14.2 14.2a2.84 2.84 0 0 0 0 4.017l14.2 14.2a2.841 2.841 0 0 0 4.261-.284A2.94 2.94 0 0 0 18.888 61l-7.84-7.868a5.681 5.681 0 0 0-1.42-1.037l-.852-.383h27.889a2.94 2.94 0 0 0 3-2.386 2.841 2.841 0 0 0-2.352-3.248z" transform="translate(0 -31.842) translate(0 31.842) translate(0 -31.842)"/>
        </g>
    </g>
</svg>
