<svg xmlns="http://www.w3.org/2000/svg" width="16" height="17.407" viewBox="0 0 16 17.407">
    <path fill="rgba(255,255,255,0.75)" d="M8 0C3.582 0 0 3.9 0 8.7s3.582 8.7 8 8.7 8-3.9 8-8.7S12.418 0 8 0zm.285 2.509L11.067 1.3a7.312 7.312 0 0 1 .914.537h.007a7.58 7.58 0 0 1 .823.657l.022.021q.175.162.341.336l.044.044q.174.184.336.38l.027.034c.1.116.187.236.276.358.021.029.044.058.064.087.1.136.19.274.278.416l-.554 2.563-2.728.989L8.289 5.44zm-6.2 1.25l.063-.087q.133-.182.272-.354l.028-.037q.164-.2.337-.38l.04-.042q.164-.172.338-.334l.023-.025A7.612 7.612 0 0 1 4 1.848l.01-.007a7.319 7.319 0 0 1 .91-.535l2.794 1.2v2.93l-2.627 2.29-2.728-.987L1.8 4.175c.089-.142.181-.28.277-.415zm-.321 9.4q-.118-.193-.225-.4l-.017-.032q-.107-.2-.2-.41a8.482 8.482 0 0 1-.351-.9c-.048-.145-.089-.294-.131-.443l-.02-.061q-.055-.211-.1-.426l-.008-.041a8.736 8.736 0 0 1-.141-.983L2.2 7.336l2.707.981.786 3.421L4.4 13.609zm8.018 3.437c-.133.036-.27.067-.407.1l-.058.011c-.116.023-.234.042-.352.058l-.094.013c-.11.014-.222.024-.331.033l-.1.009c-.142.01-.285.015-.429.015s-.263 0-.393-.011h-.044q-.174-.011-.347-.029l-.027-.016a7.031 7.031 0 0 1-.752-.131l-1.577-2.687 1.272-1.845h3.715l1.292 1.857zm5.515-6.149l-.008.041q-.044.215-.1.426l-.014.055c-.04.149-.083.3-.131.443a8.454 8.454 0 0 1-.351.9q-.1.208-.2.41l-.017.032q-.107.2-.224.4l-2.631.451-1.3-1.867.779-3.421 2.709-.982 1.628 2.128a8.715 8.715 0 0 1-.141.983zm0 0"/>
</svg>
