<svg xmlns="http://www.w3.org/2000/svg" width="35" height="35" viewBox="0 0 35 35">
    <path fill="#003e73" d="M10.915 1.281a17.5 17.5 0 0 0-5.789 28.593 17.486 17.486 0 0 0 24.749 0 17.486 17.486 0 0 0 0-24.749 17.524 17.524 0 0 0-18.96-3.844zM4.374 24.867a12.012 12.012 0 0 1-2.307-1.856 16.5 16.5 0 0 1-.532-9.194 14.7 14.7 0 0 1 1.121-1.86c.13-.183.251-.374.39-.552l3.949 2.337v.1a30.421 30.421 0 0 0 .635 6.311v.024l-3.063 4.8c-.067-.032-.129-.069-.193-.11zm11.742 8.119a15.037 15.037 0 0 0 2.1.88 16.412 16.412 0 0 1-8.879-2.151l6.62 1.18c.053.032.105.063.159.091zm-.024-1.2L8.28 30.4a24.4 24.4 0 0 1-2.443-3.539c-.18-.319-.381-.629-.533-.962l3.06-4.8c.068.017.143.035.229.058a50.776 50.776 0 0 0 5.824 1.162c.115.016.21.03.292.039l3.667 6.342q-.955 1.342-1.938 2.665c-.109.145-.225.286-.346.426zm13-2.7a16.279 16.279 0 0 1-1.973 1.683 15 15 0 0 0-.591-2.69l3.913-7.3a18.281 18.281 0 0 0 3.083-1.738 1.379 1.379 0 0 0 .312-.3 16.307 16.307 0 0 1-4.746 10.348zm-.174-9.468c.146.278.289.558.433.842l-3.78 7.051c-.022 0-.043.01-.064.013a34.478 34.478 0 0 1-6.18.594L15.553 21.6q.881-1.635 1.746-3.279c.392-.743.777-1.491 1.161-2.238l7.807-.8a43.58 43.58 0 0 1 2.649 4.338zm-1.584-8.364c-.37.978-.767 1.947-1.161 2.917l-7.605.781c-.091-.12-.185-.238-.284-.351q-1.347-1.526-2.7-3.041l.025-.027-1.093-1.092 2.117-6.375a2.969 2.969 0 0 1 .442-.087c1.151-.117 2.3-.25 3.457-.316a16.816 16.816 0 0 1 2.136-.012l5.239 5.9c-.189.577-.365 1.149-.575 1.706zM29.09 5.91a16.318 16.318 0 0 1 3.355 4.859 16.636 16.636 0 0 0-3.126-1.68c-.171-.071-.347-.133-.525-.194l-5.156-5.811a6.817 6.817 0 0 0 .062-.756 16.312 16.312 0 0 1 5.39 3.582zM12.252 2.022c.02.015.03.028.042.031a13.107 13.107 0 0 1 3.262 1.718l-1.979 5.957a.213.213 0 0 0-.03.01c-.4.167-.817.317-1.216.5a34.871 34.871 0 0 0-4.75 2.562l-3.9-2.309a1.18 1.18 0 0 1 .068-.356c.262-.7.52-1.4.816-2.085a15.634 15.634 0 0 1 .772-1.534c.186-.205.378-.408.576-.606a16.293 16.293 0 0 1 6.377-3.947c-.014.019-.026.037-.038.059z"/>
</svg>
