<svg xmlns="http://www.w3.org/2000/svg" width="110" height="110" viewBox="0 0 110 110">
    <defs>
        <clipPath id="9pffp583ma">
            <circle cx="55" cy="55" r="55" fill="none" stroke="#707070" transform="translate(170 655)"/>
        </clipPath>
    </defs>
    <g clip-path="url(#9pffp583ma)" transform="translate(-170 -655)">
        <path fill="#1b69a6" d="M55 0a55 55 0 1 0 55 55A55 55 0 0 0 55 0zm1.962 15.855l19.121-7.639a51.448 51.448 0 0 1 6.282 3.395l.049.031a51.639 51.639 0 0 1 5.659 4.149l.153.134q1.2 1.027 2.344 2.124c.095.095.2.183.306.278q1.195 1.164 2.313 2.4l.183.214c.654.733 1.283 1.491 1.894 2.264.147.183.306.367.437.55.663.859 1.3 1.729 1.91 2.631L93.8 42.582l-18.749 6.252-18.065-14.456zm-42.652 7.9l.434-.55q.917-1.149 1.873-2.24l.189-.232q1.124-1.241 2.316-2.4c.092-.089.183-.183.278-.266q1.131-1.088 2.322-2.111l.183-.153a51.827 51.827 0 0 1 5.595-4.125l.07-.046a51.5 51.5 0 0 1 6.258-3.382l19.207 7.605v18.517L34.971 48.825l-18.752-6.24-3.813-16.2c.611-.9 1.244-1.769 1.9-2.625zM12.1 83.132q-.81-1.222-1.546-2.512l-.119-.2q-.735-1.278-1.388-2.592V77.8a51.079 51.079 0 0 1-2.414-5.683v-.006c-.327-.917-.611-1.855-.9-2.8l-.1-.348q-.376-1.332-.684-2.692l-.058-.26a51.027 51.027 0 0 1-.968-6.211l11.193-13.441 18.611 6.2 5.405 21.618L30.25 86zm55.122 21.722c-.917.226-1.858.425-2.8.611l-.4.07c-.8.144-1.61.266-2.423.367l-.648.082c-.755.089-1.528.153-2.276.208-.241.015-.477.04-.718.055-.975.061-1.959.095-2.949.095q-1.36 0-2.7-.07c-.107 0-.211-.018-.306-.024q-1.2-.067-2.383-.183l-.119-.037a52.228 52.228 0 0 1-5.17-.825l-10.844-16.98 8.742-11.657h25.544L76.658 88.3zM105.136 66l-.058.26q-.306 1.36-.684 2.692l-.1.348c-.275.944-.571 1.879-.9 2.8v.012a50.91 50.91 0 0 1-2.414 5.683v.028q-.657 1.317-1.387 2.588l-.119.2q-.733 1.283-1.543 2.509l-18.086 2.854-8.956-11.8 5.4-21.621 18.623-6.203L106.1 59.794a50.906 50.906 0 0 1-.969 6.212zm0 0" transform="translate(170 655)"/>
    </g>
</svg>
