<svg xmlns="http://www.w3.org/2000/svg" width="169.076" height="172" viewBox="0 0 169.076 172">
    <defs>
        <style>
            .cls-3{fill:#fff}.cls-4{fill:#35495e}
        </style>
    </defs>
    <g id="football_2_" transform="translate(-.004)">
        <path id="Trazado_2943" fill="#71c285" d="M169.08 139.934c0 17.724-37.838 32.066-84.537 32.066S0 157.658 0 139.934c0-8.834 9.387-16.85 24.634-22.651a70.4 70.4 0 0 0 7.754 9.416c.525.554 1.05 1.079 1.6 1.573 1.05 1.05 2.128 2.012 3.236 2.945.058.059.087.117.146.146.991.846 1.981 1.663 3.031 2.42a6.267 6.267 0 0 0 .758.554c1.05.816 2.128 1.575 3.236 2.3a4.177 4.177 0 0 0 .495.291c.875.613 1.749 1.138 2.653 1.663.728.466 1.487.874 2.245 1.282 1.02.584 2.069 1.107 3.148 1.6.845.437 1.749.816 2.623 1.224 1.341.583 2.711 1.107 4.082 1.6.757.262 1.487.525 2.244.758 1.05.349 2.1.671 3.178.962a.41.41 0 0 0 .2.058.108.108 0 0 0 .088.029c.7.2 1.428.379 2.157.525a.192.192 0 0 0 .2.059 20.244 20.244 0 0 0 2.216.495 4.3 4.3 0 0 0 .845.176c.787.146 1.575.291 2.391.408a64.964 64.964 0 0 0 6.763.757c.437.029.874.059 1.282.059q1.661.087 3.324.087t3.322-.087c.408 0 .845-.03 1.283-.059a65 65 0 0 0 6.763-.757c.816-.117 1.6-.262 2.389-.408a4.333 4.333 0 0 0 .846-.176 20.289 20.289 0 0 0 2.215-.495.2.2 0 0 0 .2-.059c.728-.146 1.457-.32 2.156-.525a.108.108 0 0 0 .088-.029.419.419 0 0 0 .2-.058c1.079-.291 2.127-.613 3.177-.962.758-.234 1.487-.5 2.245-.758 1.37-.5 2.74-1.021 4.081-1.6.874-.408 1.778-.787 2.623-1.224 1.079-.5 2.128-1.02 3.149-1.6.757-.408 1.516-.816 2.244-1.282.9-.525 1.778-1.05 2.653-1.663a4.193 4.193 0 0 0 .5-.291c1.107-.728 2.186-1.487 3.235-2.3a6.266 6.266 0 0 0 .758-.554c1.05-.757 2.04-1.573 3.031-2.42.059-.029.088-.087.147-.146 1.107-.933 2.186-1.895 3.235-2.945.555-.495 1.079-1.02 1.6-1.573a70.508 70.508 0 0 0 7.755-9.416c15.245 5.8 24.632 13.817 24.632 22.651zm0 0"/>
        <path id="Trazado_2944" fill="#4c8056" d="M148.675 139.934c0-11.27-28.713-20.406-64.132-20.406s-64.133 9.136-64.133 20.406 28.713 20.406 64.133 20.406 64.132-9.14 64.132-20.406zm0 0"/>
        <path id="Trazado_2945" d="M154.388 96.586c-.234.758-.466 1.516-.728 2.274-.467 1.516-1.021 3-1.632 4.46-.291.728-.613 1.428-.933 2.157s-.642 1.428-.991 2.128c-.525 1.136-1.109 2.244-1.72 3.351-.379.7-.787 1.4-1.2 2.1-.845 1.428-1.749 2.857-2.74 4.227a70.512 70.512 0 0 1-7.755 9.416c-.525.525-1.048 1.05-1.6 1.573h-21.4l-14.572-26.235L113.693 75.8h29.152zm0 0" class="cls-3"/>
        <path id="Trazado_2946" d="M135.089 128.273c-1.048 1.021-2.127 2.012-3.235 2.945-.059.059-.088.117-.147.146-.991.846-1.981 1.663-3.031 2.42a6.263 6.263 0 0 1-.758.554c-1.048.816-2.127 1.575-3.235 2.3a4.189 4.189 0 0 1-.5.291 28.429 28.429 0 0 1-2.653 1.663c-.728.466-1.487.874-2.244 1.282-1.05.554-2.1 1.107-3.149 1.6-.874.437-1.719.816-2.623 1.224-1.341.583-2.711 1.107-4.081 1.6-.73.291-1.487.525-2.245.758-1.05.349-2.1.671-3.177.962a.419.419 0 0 1-.2.058l9.882-17.812zm0 0" class="cls-4"/>
        <path id="Trazado_2947" d="M65.274 146.084a.41.41 0 0 1-.2-.058c-1.079-.291-2.128-.613-3.178-.962-.757-.234-1.516-.467-2.244-.758-1.371-.5-2.741-1.021-4.082-1.6-.9-.408-1.749-.787-2.623-1.224-1.05-.5-2.1-1.05-3.148-1.6-.758-.408-1.517-.816-2.245-1.282a28.778 28.778 0 0 1-2.653-1.663 4.172 4.172 0 0 1-.495-.291c-1.107-.728-2.186-1.487-3.236-2.3a6.264 6.264 0 0 1-.758-.554c-1.05-.757-2.04-1.573-3.031-2.42-.059-.029-.088-.087-.146-.146-1.107-.933-2.186-1.924-3.236-2.945h21.4zm0 0" class="cls-4"/>
        <path id="Trazado_2948" d="M69.967 102.037l-14.576 26.236h-21.4c-.554-.524-1.079-1.048-1.6-1.573a70.4 70.4 0 0 1-7.754-9.416c-.992-1.37-1.895-2.8-2.741-4.227-.408-.7-.816-1.4-1.2-2.1-.611-1.107-1.194-2.215-1.719-3.351-.35-.7-.671-1.4-.992-2.128s-.64-1.429-.932-2.157c-.613-1.458-1.167-2.945-1.634-4.46-.261-.758-.495-1.516-.728-2.274L26.24 75.8h29.151zm0 0" class="cls-3"/>
        <path id="Trazado_2949" d="M26.24 75.8L14.7 96.586a72.774 72.774 0 0 1 0-41.569zm0 0" class="cls-4"/>
        <path id="Trazado_2950" d="M69.967 49.565L55.391 75.8H26.24L14.7 55.017A72.318 72.318 0 0 1 34 23.329h21.4zm0 0" class="cls-3"/>
        <path id="Trazado_2951" d="M113.693 75.8l-14.576 26.237h-29.15L55.391 75.8l14.576-26.235h29.15zm0 0" class="cls-4"/>
        <path id="Trazado_2952" d="M113.693 128.273l-9.882 17.812a.108.108 0 0 1-.088.029c-.728.2-1.428.379-2.156.525a.2.2 0 0 1-.2.059c-.728.2-1.458.349-2.215.495a4.331 4.331 0 0 1-.846.176c-.786.175-1.6.291-2.389.408a65 65 0 0 1-6.763.757c-.408.029-.846.059-1.283.059q-1.661.087-3.322.087t-3.324-.087c-.437 0-.874-.03-1.282-.059a64.963 64.963 0 0 1-6.763-.757c-.787-.117-1.6-.234-2.391-.408a4.3 4.3 0 0 1-.845-.176c-.758-.146-1.487-.291-2.216-.495a.192.192 0 0 1-.2-.059c-.73-.146-1.429-.32-2.157-.525a.108.108 0 0 1-.088-.029l-9.882-17.812 14.576-26.236h29.15zm0 0" class="cls-3"/>
        <path id="Trazado_2953" d="M154.388 55.017L142.845 75.8h-29.152L99.117 49.565l14.576-26.236h21.4a72.318 72.318 0 0 1 19.3 31.688zm0 0" class="cls-3"/>
        <path id="Trazado_2954" d="M135.089 23.329h-21.4l-9.882-17.81a72.051 72.051 0 0 1 31.282 17.81zm0 0" class="cls-4"/>
        <path id="Trazado_2955" d="M65.274 5.519l-9.882 17.81h-21.4a72.059 72.059 0 0 1 31.282-17.81zm0 0" class="cls-4"/>
        <path id="Trazado_2956" d="M113.693 23.329L99.117 49.565h-29.15L55.391 23.329l9.882-17.81a72.832 72.832 0 0 1 38.538 0zm0 0" class="cls-3"/>
        <path id="Trazado_2957" d="M157.42 75.8a71.977 71.977 0 0 1-3.032 20.785L142.844 75.8l11.543-20.784A71.975 71.975 0 0 1 157.42 75.8zm0 0" class="cls-4"/>
        <path id="Trazado_2958" fill="#2c3e50" d="M160.277 72.944v-.315c-.029-.673-.062-1.346-.114-1.955-.062-1.071-.151-2.145-.291-3.376-.117-1.026-.239-2.072-.4-3.014-.157-1.1-.348-2.229-.584-3.236a63.53 63.53 0 0 0-1.687-6.827l-.014-.052c-.245-.79-.487-1.577-.728-2.277q-.74-2.386-1.715-4.687c-.248-.613-.51-1.207-.776-1.811l-.2-.437c-.34-.773-.678-1.513-1.014-2.177-.554-1.2-1.165-2.367-1.8-3.522q-.59-1.085-1.256-2.207c-.825-1.367-1.677-2.737-2.575-4.023-.6-.874-1.21-1.728-1.837-2.559a69.844 69.844 0 0 0-6.465-7.559c-.583-.614-1.167-1.2-1.685-1.659-1.055-1.029-2.143-2.04-3.256-2.973-.085-.084-.178-.165-.272-.244-1.05-.895-2.1-1.749-3.279-2.624a8.493 8.493 0 0 0-.752-.545c-1.068-.823-2.161-1.592-3.262-2.315a6.1 6.1 0 0 0-.608-.37 27.988 27.988 0 0 0-2.594-1.618c-.761-.489-1.556-.921-2.535-1.458-1.062-.559-2.12-1.117-3.126-1.592-.833-.417-1.644-.783-2.763-1.291-1.4-.606-2.828-1.152-4.16-1.632-.8-.324-1.639-.583-2.405-.816-1.041-.346-2.078-.668-3.143-.959a3.354 3.354 0 0 0-.516-.148c-.747-.207-1.458-.388-2.207-.537l-.11-.024a21.265 21.265 0 0 0-2.157-.487 7.413 7.413 0 0 0-1.2-.262c-.752-.16-1.533-.291-2.375-.4A67.539 67.539 0 0 0 89.349.16C88.877.128 88.367.1 88.108.1 87.329.041 86.583.041 86 .043a21.176 21.176 0 0 0-2.707 0c-.782 0-1.534 0-2.071.059-.5 0-1.014.031-1.457.064a68.251 68.251 0 0 0-7.175.8c-.749.11-1.521.227-2.274.387a4.7 4.7 0 0 0-.932.193c-.837.16-1.644.327-2.45.551l-.1.026c-.706.143-1.394.311-2.1.507a2.706 2.706 0 0 0-.475.14c-1.117.291-2.2.632-3.207.974-.838.256-1.673.516-2.384.8-1.425.516-2.854 1.062-4.518 1.787-.854.387-1.665.755-2.443 1.146-1.062.5-2.119 1.058-3.37 1.716-.79.429-1.586.875-2.181 1.248a31.879 31.879 0 0 0-2.761 1.72 6.744 6.744 0 0 0-.583.353c-1.128.74-2.222 1.51-3.288 2.332a9.848 9.848 0 0 0-.816.6c-1.11.806-2.166 1.67-3.207 2.565-.091.079-.18.157-.262.24-1.27 1.072-2.317 2.04-3.232 2.947-.584.545-1.119 1.089-1.673 1.644a70.507 70.507 0 0 0-6.5 7.579c-.639.848-1.245 1.7-1.834 2.556-.912 1.306-1.764 2.676-2.623 4.081-.423.723-.842 1.458-1.227 2.155-.648 1.165-1.26 2.332-1.779 3.46-.37.74-.707 1.48-1.048 2.253l-.2.437c-.265.6-.527 1.2-.758 1.77a45.426 45.426 0 0 0-1.652 4.51 22.888 22.888 0 0 0-.806 2.487l-.017.06a63.456 63.456 0 0 0-1.668 6.734c-.253 1.1-.442 2.229-.583 3.25s-.291 2.067-.432 3.248C9.088 68.5 9 69.577 8.936 70.584c-.052.673-.084 1.346-.113 2.019v.315c-.03.959-.059 1.892-.059 2.857s.029 1.9.059 2.858v.323c.031.671.06 1.341.113 1.947.062 1.069.152 2.145.291 3.376.117 1.026.24 2.072.4 3.014.157 1.1.346 2.229.583 3.236a63.888 63.888 0 0 0 1.682 6.844v.052c.245.79.487 1.577.728 2.277a49.907 49.907 0 0 0 1.715 4.687c.247.613.509 1.207.776 1.811l.194.437c.341.773.68 1.513 1.014 2.178.555 1.2 1.167 2.366 1.806 3.521.394.723.812 1.458 1.244 2.186 1 1.689 1.942 3.145 2.849 4.393a73.043 73.043 0 0 0 8.04 9.769c.583.614 1.165 1.2 1.685 1.659 1.058 1.029 2.143 2.04 3.259 2.973a3.373 3.373 0 0 0 .268.244c1.05.895 2.1 1.749 3.279 2.624a8.934 8.934 0 0 0 .749.545c1.069.823 2.162 1.592 3.265 2.315a6.634 6.634 0 0 0 .613.373 27.438 27.438 0 0 0 2.589 1.615c.76.489 1.556.921 2.535 1.458 1.062.563 2.123 1.119 3.123 1.592.836.42 1.649.787 2.766 1.294 1.4.606 2.828 1.152 4.16 1.632.8.324 1.639.584 2.405.816 1.041.348 2.079.668 3.143.959a3.318 3.318 0 0 0 .516.15c.747.206 1.458.387 2.207.535l.1.026a21.112 21.112 0 0 0 2.169.482 7.411 7.411 0 0 0 1.2.262c.752.16 1.533.291 2.375.4a67.7 67.7 0 0 0 7.052.794c.47.031.945.046 1.329.058 1.167.064 2.332.093 3.479.093s2.332-.029 3.322-.087c.5 0 1.014-.033 1.458-.064a68.728 68.728 0 0 0 7.165-.808c.749-.11 1.522-.227 2.274-.387a4.657 4.657 0 0 0 .925-.193c.836-.16 1.643-.327 2.449-.551l.1-.026c.706-.142 1.394-.311 2.1-.507a2.6 2.6 0 0 0 .475-.14c1.117-.291 2.2-.632 3.207-.974.84-.256 1.673-.516 2.384-.8 1.425-.516 2.854-1.062 4.513-1.785.857-.39 1.67-.757 2.446-1.148 1.06-.5 2.122-1.058 3.372-1.716.79-.429 1.586-.875 2.181-1.248a31.348 31.348 0 0 0 2.754-1.718 6.476 6.476 0 0 0 .584-.356c1.127-.74 2.22-1.509 3.291-2.332a9.281 9.281 0 0 0 .814-.583c1.11-.8 2.165-1.67 3.206-2.565.091-.079.181-.157.262-.239 1.117-.945 2.2-1.945 3.172-2.892.038-.033.071-.07.1-.1l.024-.021c.566-.513 1.11-1.048 1.615-1.582a73.1 73.1 0 0 0 8.033-9.748c.947-1.306 1.89-2.763 2.9-4.469.423-.722.842-1.457 1.227-2.153.647-1.167 1.26-2.333 1.778-3.46.37-.741.709-1.481 1.05-2.254l.2-.437c.265-.6.527-1.2.757-1.769a48.187 48.187 0 0 0 1.7-4.639c.274-.79.517-1.577.758-2.358l.017-.062a62.877 62.877 0 0 0 1.668-6.733c.253-1.1.444-2.231.583-3.25s.293-2.068.432-3.248c.126-1.076.217-2.152.274-3.157.055-.671.084-1.341.117-2.012v-.324c.029-.959.058-1.892.058-2.857s.035-1.921.007-2.88zm-14.1 2.857l7.128-12.825c.143.722.291 1.457.4 2.215.152.915.257 1.857.382 2.933.112.964.2 1.933.253 2.964.052.6.079 1.2.112 2.04.029.9.055 1.778.055 2.685s-.026 1.782-.062 2.916c-.026.6-.055 1.2-.108 1.866-.055.964-.139 1.933-.268 3.055-.108.919-.213 1.859-.379 2.854-.1.682-.241 1.408-.384 2.134zm-5.577-41.86c.584.783 1.149 1.568 1.72 2.4.84 1.2 1.618 2.455 2.35 3.67.392.68.786 1.355 1.165 2.04.583 1.047 1.128 2.093 1.665 3.245.329.659.63 1.317.929 2l.2.446c.24.542.479 1.072.718 1.661.609 1.458 1.11 2.83 1.563 4.283.113.335.215.676.323 1.012l-10.1 18.187h-25.722l-7.288-13.118-5.67-10.2 5.667-10.2 7.288-13.118H133.9c.236.234.47.444.72.709a64.825 64.825 0 0 1 5.981 6.987zM97.4 99.122H71.683L64.4 86l-5.673-10.2 5.666-10.2 7.288-13.118H97.4l7.286 13.118 5.673 10.2-5.668 10.2zm15.127-87.453c.783.356 1.53.688 2.351 1.1.989.466 1.971.985 3.1 1.58.661.358 1.332.714 2.14 1.224a25.6 25.6 0 0 1 2.382 1.5c.115.081.44.277.568.341 1.043.685 2.058 1.4 3.05 2.168.119.091.419.319.55.391.038.029.248.2.293.222.1.072.189.16.291.234h-11.841l-5.44-9.815c.825.315 1.665.65 2.557 1.058zM68.509 7.713c.653-.184 1.3-.308 2.26-.509a1.838 1.838 0 0 1 .291-.067 2.948 2.948 0 0 0 .353-.056c.664-.148 1.353-.247 2.244-.378a62 62 0 0 1 6.474-.727c.345-.022.711-.049 1.324-.06s1.21-.047 2.04-.055c.344-.021.718-.021 1.047-.021s.7 0 1.253.029c.606 0 1.21 0 2.069.059.37 0 .737.026 1.1.052a63.607 63.607 0 0 1 6.687.757c.664.1 1.353.2 2.017.344a2.949 2.949 0 0 0 .353.056 4.69 4.69 0 0 1 .583.136c.68.131 1.329.256 1.983.44l.093.024a2.631 2.631 0 0 0 .332.088c.291.058.584.143.875.213l8.474 15.292L108 27.572 97.4 46.651H71.683l-10.6-19.083-2.355-4.238 8.481-15.29c.291-.07.584-.155.875-.213a2.426 2.426 0 0 0 .332-.088zm-25.945 12.1a2.94 2.94 0 0 0 .377-.245c.991-.769 2.005-1.483 3.25-2.291a2.879 2.879 0 0 0 .367-.218 27.366 27.366 0 0 1 2.551-1.594c.638-.412 1.308-.768 2.11-1.2.988-.518 1.971-1.038 3.014-1.533.766-.386 1.513-.718 2.481-1.167.76-.329 1.573-.623 2.37-.93l-5.41 9.781H41.813c.131-.1.248-.2.384-.291zM18.212 53.6c.42-1.358.921-2.728 1.548-4.231.222-.547.461-1.077.7-1.621l.2-.446c.291-.685.6-1.344.968-2.081.5-1.072 1.046-2.119 1.635-3.181.367-.676.761-1.352 1.131-1.993.755-1.253 1.534-2.508 2.387-3.725.558-.814 1.117-1.6 1.715-2.4a65.329 65.329 0 0 1 5.961-6.961c.23-.23.492-.48.731-.716h18.487l7.287 13.118 5.67 10.2-5.666 10.2-7.289 13.123h-25.72L17.836 54.669c.108-.332.224-.678.375-1.069zm-2.434 35.027c-.143-.723-.291-1.458-.4-2.215-.151-.916-.256-1.857-.382-2.933-.11-.964-.2-1.933-.253-2.964-.05-.584-.079-1.2-.112-2.04-.029-.892-.055-1.768-.055-2.674s.026-1.781.062-2.914c.026-.6.052-1.2.108-1.871.055-.966.14-1.933.268-3.056.109-.917.214-1.859.379-2.854.1-.681.243-1.408.384-2.134L22.905 75.8zM27 115.569c-.84-1.167-1.687-2.47-2.585-3.988-.394-.673-.787-1.35-1.167-2.04-.583-1.047-1.128-2.093-1.664-3.245-.329-.659-.63-1.317-.93-2l-.2-.446c-.239-.542-.478-1.073-.718-1.661-.609-1.458-1.11-2.83-1.562-4.283-.114-.335-.217-.676-.324-1.012l10.1-18.175h25.725l7.287 13.118 5.67 10.2-5.666 10.2-7.288 13.118H35.184c-.234-.234-.466-.444-.711-.7A67.984 67.984 0 0 1 27 115.574zm29.557 24.379c-.782-.356-1.527-.692-2.359-1.107-.988-.465-1.97-.983-3.1-1.577-.661-.36-1.332-.715-2.139-1.224a25.663 25.663 0 0 1-2.379-1.5 5.875 5.875 0 0 0-.58-.34c-1.043-.685-2.058-1.4-3.048-2.169-.114-.087-.432-.323-.558-.4-.038-.026-.241-.189-.291-.215-.1-.073-.189-.16-.291-.234h11.85l5.439 9.806c-.8-.318-1.653-.652-2.544-1.046zm44.017 3.941c-.652.184-1.3.31-2.258.51a1.854 1.854 0 0 1-.293.067 3.161 3.161 0 0 0-.352.055c-.665.15-1.353.248-2.245.379a61.994 61.994 0 0 1-6.474.726c-.344.024-.711.05-1.239.052a59.469 59.469 0 0 1-6.489 0c-.371 0-.739-.026-1.1-.052a63.533 63.533 0 0 1-6.687-.757c-.665-.1-1.353-.2-2.017-.344a2.948 2.948 0 0 0-.353-.056 4.711 4.711 0 0 1-.584-.136c-.678-.131-1.329-.256-1.981-.44l-.093-.024a2.65 2.65 0 0 0-.333-.088c-.291-.058-.583-.143-.874-.213l-8.479-15.3 2.355-4.241 10.6-19.079H97.4l10.6 19.086 2.355 4.238-8.483 15.291c-.291.07-.583.154-.874.213a2.439 2.439 0 0 0-.333.087zm25.926-12.095a2.812 2.812 0 0 0-.365.239c-.991.77-2.006 1.484-3.233 2.281a3.194 3.194 0 0 0-.387.23 27.5 27.5 0 0 1-2.548 1.594c-.638.411-1.308.766-2.11 1.2-.985.522-1.968 1.041-3.018 1.537-.769.384-1.516.72-2.477 1.167-.761.329-1.575.623-2.37.929l5.419-9.78h11.861c-.131.1-.248.2-.384.291zM150.875 98c-.42 1.358-.921 2.728-1.547 4.229-.222.548-.461 1.079-.7 1.621l-.2.446c-.291.685-.6 1.344-.967 2.082-.5 1.072-1.047 2.119-1.636 3.179-.366.677-.76 1.353-1.142 2.012-.909 1.534-1.749 2.842-2.624 4.061a67.983 67.983 0 0 1-7.472 9.063c-.21.22-.425.44-.647.661h-18.529l-7.288-13.118-5.67-10.2 5.667-10.2 7.288-13.118h25.716l10.1 18.179c-.112.366-.217.707-.35 1.107zm0 0"/>
    </g>
</svg>
