<svg xmlns="http://www.w3.org/2000/svg" width="21" height="35" viewBox="0 0 21 35">
    <defs>
        <style>
            .cls-1{fill:#003e73}
        </style>
    </defs>
    <g id="bano" transform="translate(-7)">
        <g id="Grupo_2608">
            <g id="Grupo_2607">
                <path id="Trazado_2878" d="M25.083 16.333H24.5v-1.166h.583a1.75 1.75 0 0 0 1.75-1.75V3.393A1.746 1.746 0 0 0 26.25 0H8.75a1.746 1.746 0 0 0-.583 3.393v10.024a1.75 1.75 0 0 0 1.75 1.75h.583v1.167h-.583A2.92 2.92 0 0 0 7 19.25a.583.583 0 0 0 .583.583 9.858 9.858 0 0 0 5.833 9.028v5.555A.583.583 0 0 0 14 35h7a.583.583 0 0 0 .583-.583v-5.555a9.861 9.861 0 0 0 5.833-9.028.583.583 0 0 0 .584-.584 2.92 2.92 0 0 0-2.917-2.917zM8.167 1.75a.583.583 0 0 1 .583-.583h17.5a.583.583 0 0 1 0 1.167H8.75a.583.583 0 0 1-.583-.584zM9.917 14a.583.583 0 0 1-.583-.583V3.5h16.333v9.917a.583.583 0 0 1-.583.583zm13.417 1.167v1.167H11.667v-1.167zm-8.75 18.667v-4.52l.054.015c.058.017.117.031.175.047q.32.091.647.16c.1.022.209.04.314.058.18.032.362.058.544.079.111.013.221.027.333.037q.356.03.715.034c.044 0 .087.006.132.006s.088-.006.132-.006q.358 0 .714-.034c.112-.009.223-.024.334-.037.181-.022.361-.047.54-.078l.32-.058c.212-.044.422-.1.629-.155.065-.018.131-.033.2-.052l.052-.014v4.518zm6.195-5.889a8.78 8.78 0 0 1-4.952.477 8.459 8.459 0 0 1-1.608-.479 8.706 8.706 0 0 1-5.468-8.11h17.5a8.708 8.708 0 0 1-5.473 8.112zM8.266 18.667A1.753 1.753 0 0 1 9.917 17.5h15.166a1.753 1.753 0 0 1 1.65 1.167z" class="cls-1"/>
                <path id="Trazado_2879" d="M15.167 5.25h-1.858a1.75 1.75 0 1 0 0 1.167h1.857a.583.583 0 0 0 0-1.167zm-3.5 1.167a.583.583 0 1 1 .583-.583.583.583 0 0 1-.583.583z" class="cls-1"/>
            </g>
        </g>
    </g>
</svg>
