<svg xmlns="http://www.w3.org/2000/svg" width="35" height="25.371" viewBox="0 0 35 25.371">
    <defs>
        <style>
            .cls-1{fill:#003e73}
        </style>
    </defs>
    <g id="coche-estacionado" transform="translate(0 -4.814)">
        <path id="Trazado_2883" d="M24.82 15.162a1.3 1.3 0 0 0-.344.048l-1.306.36-1.356-3.3a2.961 2.961 0 0 0-2.532-1.7H6.586a2.96 2.96 0 0 0-2.532 1.7L2.7 15.565l-1.29-.355a1.3 1.3 0 0 0-.344-.048A1.059 1.059 0 0 0 0 16.284v.77a1.377 1.377 0 0 0 1.376 1.376h.148l-.219.533a10.319 10.319 0 0 0-.648 3.282v6.565a1.377 1.377 0 0 0 1.376 1.376h1.8a1.377 1.377 0 0 0 1.372-1.376v-1.639h15.458v1.639a1.377 1.377 0 0 0 1.376 1.376h1.8a1.377 1.377 0 0 0 1.371-1.376v-6.565a10.32 10.32 0 0 0-.648-3.282l-.219-.533h.166a1.377 1.377 0 0 0 1.376-1.376v-.77a1.059 1.059 0 0 0-1.065-1.122zm-21.134 2.52l2.052-5a1.779 1.779 0 0 1 1.518-1.018h11.356a1.779 1.779 0 0 1 1.518 1.018l2.052 5A.687.687 0 0 1 21.5 18.7H4.368a.687.687 0 0 1-.682-1.018zM8.266 24a.552.552 0 0 1-.55.55h-3.9a.552.552 0 0 1-.55-.55v-1.866a.552.552 0 0 1 .55-.55h3.9a.552.552 0 0 1 .55.55zm14.3 0a.552.552 0 0 1-.55.55h-3.9a.552.552 0 0 1-.55-.55v-1.866a.552.552 0 0 1 .55-.55h3.9a.552.552 0 0 1 .55.55z" class="cls-1"/>
        <g id="Grupo_2617">
            <path id="Trazado_2884" d="M33.279 4.814h-6.516a1.723 1.723 0 0 0-1.721 1.721v6.516a1.723 1.723 0 0 0 1.721 1.721h2.616V29.4a.642.642 0 1 0 1.284 0V14.772h2.616A1.723 1.723 0 0 0 35 13.051V6.535a1.723 1.723 0 0 0-1.721-1.721zm-1.476 5.4a2.385 2.385 0 0 1-1.641.508h-.944a.206.206 0 0 0-.205.206v1.591a.314.314 0 0 1-.313.313h-.715a.314.314 0 0 1-.313-.313V7.065a.314.314 0 0 1 .313-.314h1.8a2.754 2.754 0 0 1 2 .49 1.854 1.854 0 0 1 .581 1.491 1.905 1.905 0 0 1-.566 1.485z" class="cls-1"/>
            <path id="Trazado_2885" d="M30.782 8.069a1.58 1.58 0 0 0-.916-.2h-.647a.206.206 0 0 0-.205.205v1.309a.206.206 0 0 0 .205.205h.388c.142 0 .373-.011.513-.024a1.756 1.756 0 0 0 .662-.175.778.778 0 0 0 .255-.659.784.784 0 0 0-.255-.661z" class="cls-1"/>
        </g>
    </g>
</svg>
