<svg xmlns="http://www.w3.org/2000/svg" width="23.639" height="20.266" viewBox="0 0 23.639 20.266">
    <defs>
        <style>
            .cls-1{fill:#1b69a6}
        </style>
    </defs>
    <g id="Icon_ionic-ios-eye-off" transform="translate(-2.252 -4.499)">
        <path id="Trazado_108" d="M5.784 4.716a.75.75 0 0 0-1.061 1.061l18.761 18.772a.744.744 0 0 0 .723.19.731.731 0 0 0 .338-.2.749.749 0 0 0 0-1.055z" class="cls-1" transform="translate(-.562)"/>
        <g id="Grupo_39" transform="translate(2.252 7.033)">
            <path id="Trazado_109" d="M14.294 21.131a4.745 4.745 0 0 1-4.512-6.776l-2.819-2.824a37.019 37.019 0 0 0-4.491 4.291.834.834 0 0 0-.005 1.124c3.425 3.784 6.444 7.04 11.595 7.04a10.162 10.162 0 0 0 4.338-1.013l-2.3-2.3a4.8 4.8 0 0 1-1.806.458z" class="cls-1" transform="translate(-2.252 -8.787)"/>
            <path id="Trazado_110" d="M28.158 16a.828.828 0 0 0 .026-1.092c-2.76-3.351-6.586-7.035-11.637-7.035a9.879 9.879 0 0 0-4.328 1l2.306 2.306a4.65 4.65 0 0 1 1.81-.454 4.745 4.745 0 0 1 4.512 6.776l2.823 2.823A34.909 34.909 0 0 0 28.158 16z" class="cls-1" transform="translate(-4.738 -7.875)"/>
            <path id="Trazado_111" d="M13.511 17.932a3.391 3.391 0 0 0 3.108 3.108 3.3 3.3 0 0 0 1.235-.137l-4.211-4.211a3.452 3.452 0 0 0-.132 1.24z" class="cls-1" transform="translate(-5.058 -10.074)"/>
            <path id="Trazado_112" d="M22.125 17.932c0-.069-.005-.137-.005-.206a2.34 2.34 0 0 1-.96.206c-.058 0-.111 0-.164-.005l.982.987a3.374 3.374 0 0 0 .147-.982z" class="cls-1" transform="translate(-6.927 -10.332)"/>
            <path id="Trazado_113" d="M17.676 14.4a2.48 2.48 0 0 1 .164-.892c-.053 0-.106-.005-.164-.005a3.339 3.339 0 0 0-.976.148l.987.987c-.006-.083-.011-.162-.011-.238z" class="cls-1" transform="translate(-5.855 -9.278)"/>
        </g>
    </g>
</svg>
