<svg xmlns="http://www.w3.org/2000/svg" width="38.538" height="38.066" viewBox="0 0 38.538 38.066">
    <g>
        <g fill="#1b69a6">
            <path stroke="#1b72b5" d="M36.567 16.121L21.444 1a3.412 3.412 0 0 0-4.826 0L1.506 16.111l-.015.016a3.411 3.411 0 0 0 2.27 5.813c.035 0 .07.005.105.005h.6v11.127a4 4 0 0 0 3.994 3.994h5.915a1.086 1.086 0 0 0 1.086-1.086v-8.724a1.824 1.824 0 0 1 1.822-1.822h3.489a1.824 1.824 0 0 1 1.828 1.822v8.724a1.086 1.086 0 0 0 1.086 1.086H29.6a4 4 0 0 0 3.994-3.994V21.945h.559a3.413 3.413 0 0 0 2.415-5.824zm-1.538 3.289a1.233 1.233 0 0 1-.877.364h-1.645a1.086 1.086 0 0 0-1.086 1.086v12.212a1.824 1.824 0 0 1-1.821 1.822h-4.83v-7.638a4 4 0 0 0-3.994-3.994h-3.489a4 4 0 0 0-3.994 3.994v7.638h-4.83a1.824 1.824 0 0 1-1.822-1.822V20.859a1.086 1.086 0 0 0-1.086-1.086H3.888a1.239 1.239 0 0 1-.854-2.116l15.12-15.122a1.24 1.24 0 0 1 1.754 0L35.024 17.65l.007.007a1.243 1.243 0 0 1 0 1.752zm0 0" transform="translate(.737 .5) translate(-73.443 -1172.467) translate(72.943 1172.467)"/>
            <path stroke="#1b69a6" stroke-linecap="round" stroke-width="2px" d="M3163.747 1209.5h-13.5" transform="translate(.737 .5) translate(-73.443 -1172.467) translate(-3066 -1)"/>
        </g>
    </g>
</svg>
