<svg xmlns="http://www.w3.org/2000/svg" width="20" height="16" viewBox="0 0 20 16">
    <defs>
        <clipPath id="i7xo7ewpca">
            <path fill="#fff" stroke="#707070" d="M0 0H20V16H0z" transform="translate(239.294 465.333)"/>
        </clipPath>
    </defs>
    <g clip-path="url(#i7xo7ewpca)" transform="translate(-239.294 -465.333)">
        <g>
            <path fill="#fff" d="M11.323 14.273l-.224.914q-1.006.4-1.605.6A4.234 4.234 0 0 1 8.1 16a2.779 2.779 0 0 1-1.894-.594 1.922 1.922 0 0 1-.674-1.506 5.338 5.338 0 0 1 .05-.726q.051-.371.163-.838l.838-2.967q.112-.426.189-.808a3.51 3.51 0 0 0 .076-.7 1.075 1.075 0 0 0-.235-.793 1.325 1.325 0 0 0-.9-.224 2.349 2.349 0 0 0-.666.1c-.228.067-.423.133-.587.193l.224-.915q.824-.335 1.576-.574a4.713 4.713 0 0 1 1.43-.235A2.711 2.711 0 0 1 9.556 6a1.94 1.94 0 0 1 .655 1.519c0 .129-.014.356-.045.681a4.553 4.553 0 0 1-.166.892l-.835 2.955a7.849 7.849 0 0 0-.183.814 4.189 4.189 0 0 0-.082.69 1 1 0 0 0 .263.8 1.484 1.484 0 0 0 .913.213 2.636 2.636 0 0 0 .69-.107 3.86 3.86 0 0 0 .557-.184zm.212-12.4a1.729 1.729 0 0 1-.584 1.316 1.988 1.988 0 0 1-1.406.544 2.01 2.01 0 0 1-1.413-.544 1.725 1.725 0 0 1-.589-1.316A1.742 1.742 0 0 1 8.132.548a2.086 2.086 0 0 1 2.819 0 1.746 1.746 0 0 1 .584 1.32z" transform="translate(241.294 465.333)"/>
        </g>
    </g>
</svg>
