<svg xmlns="http://www.w3.org/2000/svg" width="93.5" height="132" viewBox="0 0 93.5 132">
    <defs>
        <style>
            .cls-1{fill:#455a64}
        </style>
    </defs>
    <g id="lock" transform="translate(-19.25)">
        <path id="Trazado_2979" d="M66 0a35.794 35.794 0 0 0-35.75 35.75v22A2.75 2.75 0 0 0 33 60.5h11a2.75 2.75 0 0 0 2.75-2.75v-22a19.25 19.25 0 1 1 38.5 0v22A2.75 2.75 0 0 0 88 60.5h11a2.75 2.75 0 0 0 2.75-2.75v-22A35.794 35.794 0 0 0 66 0z" class="cls-1"/>
        <path id="Trazado_2980" fill="#ffc107" d="M33 55h66a13.75 13.75 0 0 1 13.75 13.75v49.5A13.75 13.75 0 0 1 99 132H33a13.75 13.75 0 0 1-13.75-13.75v-49.5A13.75 13.75 0 0 1 33 55z"/>
        <path id="Trazado_2981" d="M79.75 85.25A13.75 13.75 0 1 0 59.9 97.515l-2.123 14.85A2.75 2.75 0 0 0 60.5 115.5h11a2.749 2.749 0 0 0 2.75-3.14l-2.123-14.85a13.8 13.8 0 0 0 7.623-12.26z" class="cls-1"/>
    </g>
</svg>
