<svg xmlns="http://www.w3.org/2000/svg" width="33.682" height="33.266" viewBox="0 0 33.682 33.266">
    <path fill="#fafafa" d="M47.779 38.715a20.874 20.874 0 0 1-9.15-2.066 1.924 1.924 0 0 0-1.433-.085 1.88 1.88 0 0 0-1.074.943l-1.348 2.753a26.19 26.19 0 0 1-9.719-9.6l2.792-1.331a1.841 1.841 0 0 0 .868-2.476 20.128 20.128 0 0 1-2.1-9.037 1.86 1.86 0 0 0-1.871-1.848H17.84a1.86 1.86 0 0 0-1.871 1.848 31.651 31.651 0 0 0 31.81 31.418 1.86 1.86 0 0 0 1.871-1.848v-6.823a1.86 1.86 0 0 0-1.871-1.848z" transform="translate(-15.969 -15.969)"/>
</svg>
