<svg xmlns="http://www.w3.org/2000/svg" id="protected" width="132" height="132" viewBox="0 0 132 132">
    <defs>
        <style>
            .cls-9{fill:#6bde1e}.cls-10{fill:#00c364}
        </style>
    </defs>
    <g id="Grupo_2665">
        <path id="Trazado_2967" fill="#08475e" d="M104.666 80.959L131.6 66.22a3.872 3.872 0 0 0-1.148-1.382l-23.2-17.4z"/>
    </g>
    <g id="Grupo_2667">
        <g id="Grupo_2666">
            <path id="Trazado_2968" fill="#0a617d" d="M27.334 80.959l-.1-1.343-.162-2.107-2.321-30.071-23.2 17.4A3.872 3.872 0 0 0 .4 66.22z"/>
        </g>
    </g>
    <g id="Grupo_2668">
        <path id="Trazado_2969" fill="#fbf0f0" d="M109.831 3.874v77.085L66 101.583 22.168 80.959V3.874A3.874 3.874 0 0 1 26.043 0h79.915a3.874 3.874 0 0 1 3.873 3.874z"/>
    </g>
    <g id="Grupo_2669">
        <path id="Trazado_2970" fill="#ffe271" d="M104.769 79.615L66 99 27.231 79.615.409 66.2A3.873 3.873 0 0 0 0 67.937v60.188A3.874 3.874 0 0 0 3.874 132h124.252a3.874 3.874 0 0 0 3.874-3.874V67.937a3.871 3.871 0 0 0-.409-1.733z"/>
    </g>
    <path id="Trazado_2971" fill="#e3dff4" d="M105.957 0H66v101.583l43.831-20.624V3.874A3.874 3.874 0 0 0 105.957 0z"/>
    <path id="Trazado_2972" fill="#ffb44b" d="M104.769 79.615L66 99v33h62.126a3.874 3.874 0 0 0 3.874-3.874V67.937a3.871 3.871 0 0 0-.409-1.733z"/>
    <g id="Grupo_2670">
        <path id="Trazado_2973" fill="#fff" d="M66 75.428a3.441 3.441 0 0 1-1.048-.163 26.887 26.887 0 0 1-14.8-11.338c-3.71-5.772-5.672-13.177-5.672-21.417v-8.321A3.446 3.446 0 0 1 46.2 31.2a11.067 11.067 0 0 0 4.034-4.034 3.447 3.447 0 0 1 2.984-1.721H78.78a3.446 3.446 0 0 1 2.984 1.721A11.067 11.067 0 0 0 85.8 31.2a3.447 3.447 0 0 1 1.721 2.984v8.326c0 8.239-1.962 15.645-5.674 21.416a26.881 26.881 0 0 1-14.8 11.338 3.444 3.444 0 0 1-1.047.164z"/>
    </g>
    <path id="Trazado_2974" fill="#efc" d="M85.8 31.2a11.069 11.069 0 0 1-4.034-4.034 3.447 3.447 0 0 0-2.984-1.721H66v49.982a3.441 3.441 0 0 0 1.048-.163 26.883 26.883 0 0 0 14.8-11.338c3.712-5.772 5.674-13.177 5.674-21.416v-8.322A3.448 3.448 0 0 0 85.8 31.2z"/>
    <g id="Grupo_2671">
        <path id="Trazado_2975" d="M66 78.527a3.869 3.869 0 0 1-1.178-.183A30.22 30.22 0 0 1 48.19 65.6c-4.173-6.487-6.379-14.811-6.379-24.072v-9.355a3.874 3.874 0 0 1 1.935-3.354 12.439 12.439 0 0 0 4.535-4.535 3.874 3.874 0 0 1 3.354-1.935h28.731a3.874 3.874 0 0 1 3.354 1.935 12.439 12.439 0 0 0 4.535 4.535 3.874 3.874 0 0 1 1.935 3.354v9.354c0 9.261-2.206 17.585-6.378 24.073a30.217 30.217 0 0 1-16.633 12.744 3.878 3.878 0 0 1-1.179.183zM49.559 34.254v7.273c0 7.771 1.78 14.646 5.147 19.88A22.584 22.584 0 0 0 66 70.553a22.58 22.58 0 0 0 11.293-9.145c3.367-5.235 5.146-12.11 5.146-19.881v-7.273a20.219 20.219 0 0 1-4.154-4.154h-24.57a20.206 20.206 0 0 1-4.156 4.156z" class="cls-9"/>
    </g>
    <g id="Grupo_2672">
        <path id="Trazado_2976" d="M63.443 56.831a3.926 3.926 0 0 1-.546-.038 3.875 3.875 0 0 1-2.634-1.623l-4.313-6.2a3.874 3.874 0 0 1 6.361-4.426l1.935 2.78 6.189-5.006a3.874 3.874 0 0 1 4.873 6.025l-9.428 7.626a3.876 3.876 0 0 1-2.436.862z" class="cls-9"/>
    </g>
    <g id="Grupo_2673">
        <path id="Trazado_2977" d="M70.434 42.32L66 45.905v9.966l9.306-7.527a3.874 3.874 0 0 0-4.873-6.025z" class="cls-10"/>
        <path id="Trazado_2978" d="M88.255 28.819a12.439 12.439 0 0 1-4.535-4.535 3.874 3.874 0 0 0-3.354-1.935H66V30.1h12.285a20.219 20.219 0 0 0 4.156 4.156v7.273c0 7.772-1.78 14.646-5.146 19.881A22.58 22.58 0 0 1 66 70.553v7.974a3.869 3.869 0 0 0 1.178-.183A30.217 30.217 0 0 0 83.812 65.6c4.172-6.487 6.378-14.812 6.378-24.073v-9.354a3.875 3.875 0 0 0-1.935-3.354z" class="cls-10"/>
    </g>
</svg>
