<svg xmlns="http://www.w3.org/2000/svg" width="22.086" height="14.724" viewBox="0 0 22.086 14.724">
    <path fill="#1b69a6" d="M21.953 11.3a12.3 12.3 0 0 0-10.91-6.8 12.3 12.3 0 0 0-10.91 6.8 1.24 1.24 0 0 0 0 1.119 12.3 12.3 0 0 0 10.91 6.8 12.3 12.3 0 0 0 10.91-6.8 1.24 1.24 0 0 0 0-1.119zm-10.91 6.081a5.522 5.522 0 1 1 5.522-5.522 5.522 5.522 0 0 1-5.522 5.525zm0-9.2a3.655 3.655 0 0 0-.97.145 1.835 1.835 0 0 1-2.565 2.565 3.673 3.673 0 1 0 3.536-2.711z" transform="translate(0 -4.5)"/>
</svg>
