<svg xmlns="http://www.w3.org/2000/svg" width="13.631" height="25.052" viewBox="0 0 13.631 25.052">
    <defs>
        <style>
            .cls-1{fill:#fff;stroke:#707070;stroke-width:.052px}
        </style>
    </defs>
    <g id="dollar-tag" transform="translate(.026 .026)">
        <g id="Grupo_2524">
            <g id="Grupo_2523">
                <path id="Trazado_2586" d="M18.824 8.469l-3.437-4.347a3.7 3.7 0 0 0-2.362-1.358V.522a.522.522 0 1 0-1.045 0v2.242a3.633 3.633 0 0 0-2.356 1.358L6.176 8.474a2.177 2.177 0 0 0-.465 1.338v13.056A2.141 2.141 0 0 0 7.858 25h9.274a2.141 2.141 0 0 0 2.158-2.121V9.812a2.2 2.2 0 0 0-.466-1.343zM12.5 7.858a1.52 1.52 0 1 1-1.52 1.52 1.518 1.518 0 0 1 1.52-1.52zm5.747 15.01a1.1 1.1 0 0 1-1.113 1.087H7.868a1.1 1.1 0 0 1-1.113-1.087V9.812A1.1 1.1 0 0 1 7 9.122l3.439-4.352a2.62 2.62 0 0 1 1.541-.946v3.041a2.567 2.567 0 1 0 1.045 0V3.824a2.641 2.641 0 0 1 .622.209 2.605 2.605 0 0 1 .914.737l3.448 4.347a1.122 1.122 0 0 1 .24.695z" class="cls-1" transform="translate(-5.711)"/>
            </g>
        </g>
        <g id="Grupo_2526" transform="translate(5.045 14.713)">
            <g id="Grupo_2525">
                <path id="Trazado_2587" d="M14.169 19.054a1.75 1.75 0 0 0-1.669-1.222.7.7 0 1 1 .7-.7.522.522 0 1 0 1.045 0 1.75 1.75 0 0 0-1.223-1.667v-.23a.522.522 0 1 0-1.045 0v.23a1.746 1.746 0 0 0 .522 3.412.7.7 0 1 1-.7.7.522.522 0 1 0-1.045 0 1.75 1.75 0 0 0 1.223 1.667v.256a.522.522 0 1 0 1.045 0v-.261a1.748 1.748 0 0 0 1.147-2.185z" class="cls-1" transform="translate(-10.756 -14.713)"/>
            </g>
        </g>
    </g>
</svg>
