<svg xmlns="http://www.w3.org/2000/svg" width="35" height="32.766" viewBox="0 0 35 32.766">
    <g>
        <g>
            <path fill="#1b69a6" d="M31.277 4.1V1.117H2.979V4.1L0 14.521v1.707a4.148 4.148 0 0 0 2.234 3.627v14.028h5.957V21.968h5.957v11.915h17.873V20.159A4.164 4.164 0 0 0 35 16.228v-1.707zM4.1 18.834a2.677 2.677 0 0 1-2.606-2.824H6.7a2.678 2.678 0 0 1-2.6 2.824zM25.319 4.1l1.489 10.426H21.6L20.851 4.1zm1.489 11.915a2.615 2.615 0 1 1-5.213 0zM10.8 18.834a2.677 2.677 0 0 1-2.606-2.824H13.4a2.678 2.678 0 0 1-2.6 2.824zm2.6-4.313H8.191L9.681 4.1h4.468zm1.489 1.489h5.213a2.615 2.615 0 1 1-5.213 0zM29.043 30.9H17.128v-8.932h11.915zM30.9 18.834a2.677 2.677 0 0 1-2.6-2.823h5.213a2.679 2.679 0 0 1-2.613 2.823z" transform="translate(0 -1.117)"/>
        </g>
    </g>
</svg>
