<svg xmlns="http://www.w3.org/2000/svg" width="35" height="28.779" viewBox="0 0 35 28.779">
    <defs>
        <style>
            .cls-1{fill:#003e73}
        </style>
    </defs>
    <g id="wifi" transform="translate(0 -3.11)">
        <g id="Grupo_2610">
            <g id="Grupo_2609">
                <circle id="Elipse_15" cx="2.256" cy="2.256" r="2.256" class="cls-1" transform="translate(15.176 27.378)"/>
            </g>
        </g>
        <g id="Grupo_2612">
            <g id="Grupo_2611">
                <path id="Trazado_2880" d="M34.633 10.586a23.37 23.37 0 0 0-34.266 0 1.367 1.367 0 0 0 2 1.864 20.636 20.636 0 0 1 30.265 0 1.367 1.367 0 1 0 2-1.864z" class="cls-1"/>
            </g>
        </g>
        <g id="Grupo_2614">
            <g id="Grupo_2613">
                <path id="Trazado_2881" d="M29.613 16.232A17.029 17.029 0 0 0 17.5 11.043a17.027 17.027 0 0 0-12.113 5.19 1.367 1.367 0 0 0 1.941 1.926A14.313 14.313 0 0 1 17.5 13.778a14.315 14.315 0 0 1 10.172 4.381 1.367 1.367 0 1 0 1.941-1.926z" class="cls-1"/>
            </g>
        </g>
        <g id="Grupo_2616">
            <g id="Grupo_2615">
                <path id="Trazado_2882" d="M24.141 21.895a9.866 9.866 0 0 0-6.654-2.857h-.1a9.866 9.866 0 0 0-6.654 2.857 1.367 1.367 0 0 0 1.924 1.942 7.139 7.139 0 0 1 4.73-2.065h.1a7.139 7.139 0 0 1 4.73 2.065 1.367 1.367 0 0 0 1.925-1.942z" class="cls-1"/>
            </g>
        </g>
    </g>
</svg>
