<svg xmlns="http://www.w3.org/2000/svg" width="55" height="102.231" viewBox="0 0 55 102.231">
    <defs>
        <style>
            .cls-1{fill:#e8eae8}.cls-2{fill:#2f4251}.cls-3{fill:#dcdcdc}.cls-4{fill:#ffd15c}.cls-5{fill:#0e7ddc}.cls-6{fill:#f5b54c}.cls-7{fill:#0f6fc0}.cls-8{fill:#425a6b}.cls-9{fill:#67c5b8}
        </style>
    </defs>
    <g id="jugador-de-futbol" transform="translate(-121.809)">
        <ellipse id="Elipse_6" cx="6.699" cy="6.563" class="cls-1" rx="6.699" ry="6.563" transform="translate(163.41 89.105)"/>
        <g id="Grupo_26" transform="translate(153.253 55.867)">
            <path id="Trazado_62" d="M361.924 477.507l-.648-2.54 2.161-1.482 1.729 1.482-.864 2.54z" class="cls-2" transform="translate(-344.204 -435.378)"/>
            <path id="Trazado_63" d="M338.876 499.077l1.945 1.482 1.945-.212-.648-1.482-2.593-.847z" class="cls-2" transform="translate(-326.342 -455.043)"/>
            <path id="Trazado_64" d="M333.773 468.974l1.729-1.694-.432-2.329-1.729.212-.865 2.329z" class="cls-2" transform="translate(-321.238 -428.539)"/>
            <path id="Trazado_65" d="M357.01 451.5l2.377.635 1.729-.847-1.729-1.27h-2.161z" class="cls-2" transform="translate(-340.802 -416.569)"/>
            <path id="Trazado_66" d="M388.159 466.019h-.216l.216 2.117.648 1.482v-.635a4.649 4.649 0 0 0-.648-2.964z" class="cls-2" transform="translate(-365.468 -429.394)"/>
            <path id="Trazado_67" d="M374.118 499.509v-.423l-1.513.635-1.729 1.694.216.212a7.752 7.752 0 0 0 3.026-2.118z" class="cls-2" transform="translate(-351.859 -455.898)"/>
        </g>
        <path id="Trazado_68" d="M277.01 283.814s.216 2.117 1.729 2.329c1.3.212 4.106-2.752 4.106-2.752l-4.106-1.905z" class="cls-3" transform="translate(-123.757 -225.618)"/>
        <path id="Trazado_69" d="M278.076 260.1l10.805-6.351s7.564 4.658 9.509 6.986c0 0 2.161.847 1.513 3.811l-.648 1.482h-7.132a7.448 7.448 0 0 0-3.674-2.117c-1.949-.42-9.292-2.538-10.373-3.811z" class="cls-4" transform="translate(-124.607 -203.389)"/>
        <path id="Trazado_70" d="M318.138 313.7a5.376 5.376 0 0 1 1.513-.212c.864 0 5.619.423 6.051 0l-.432 1.482a2.264 2.264 0 0 1-.648 1.482l-2.161 5.293-2.161 4.022s-2.593 4.869-2.809 5.716a9.24 9.24 0 0 0 .216 3.387c.216.847-3.242.423-3.242.423l-3.458-.212a3.182 3.182 0 0 1 .432-2.117 24.515 24.515 0 0 0 2.377-5.293c.432-1.694 1.513-3.6 1.513-5.5a16.285 16.285 0 0 1 2.809-7.833s.649-.218 0-.638z" class="cls-1" transform="translate(-150.838 -251.266)"/>
        <g id="Grupo_27" transform="translate(164.707 62.642)">
            <path id="Trazado_71" d="M352.192 317.948a2.485 2.485 0 0 0 .432-1.27c-1.729.423-4.97-.635-5.619-.635a3.117 3.117 0 0 1-1.3-.423.734.734 0 0 1-.216.423c0 .212-.216.212-.216.423 1.732 1.27 5.838 1.482 6.919 1.482z" class="cls-5" transform="translate(-342.899 -315.619)"/>
            <path id="Trazado_72" d="M340.458 347.39l.216-.423c-2.593 0-6.7-1.482-6.915-1.482a8.594 8.594 0 0 0-.216 2.117 53.177 53.177 0 0 0 6.051 1.27z" class="cls-5" transform="translate(-333.543 -339.557)"/>
        </g>
        <g id="Grupo_28" transform="translate(138.774 64.124)">
            <path id="Trazado_73" d="M212.891 327.954c.432 2.54-.216 2.964-.216 2.964.216 1.482-1.3 3.811-1.3 3.811v.423l-5.4-1.058v-1.482s.216-1.905.216-3.387-.648-5.5-.648-5.928l7.78-.212a11.541 11.541 0 0 1-.432 4.869z" class="cls-4" transform="translate(-205.543 -323.084)"/>
        </g>
        <path id="Trazado_75" d="M211.68 204.66l1.945 2.54s1.08.212 1.3 1.058c0 0 0 .212.216 0s.216.635.648.423c.432 0 .648-.212.865 0s.216 1.058.648.635.865-.212 1.08.423l3.89 2.329-.432-.212-9.941 6.986s-1.513 2.752.216 3.176c0 0-.432.212-.865-.423a19.82 19.82 0 0 0-3.242-2.329l-.648 1.27v3.176c-3.458 3.6-7.564 4.446-12.318 2.752a26.639 26.639 0 0 0 .216-4.658 9.439 9.439 0 0 1-.216-1.27 8.232 8.232 0 0 1-.432-3.176 16.969 16.969 0 0 1 .648-13.761l2.809-2.117 9.077 1.27z" class="cls-1" transform="translate(-57.13 -161.495)"/>
        <g id="Grupo_29" transform="translate(150.66 46.6)">
            <path id="Trazado_76" d="M269.5 238.553s-1.945 1.058-.648.635a12.861 12.861 0 0 0 2.593-1.27 23.71 23.71 0 0 0 2.809-2.54s-3.025 3.176-4.106 3.387a12.127 12.127 0 0 0 1.08-1.905c.216-.635 1.729-1.694 1.729-1.694s.865-.847-.648 0-5.187 3.387-3.242 2.329l1.945-1.058s-.86 1.904-1.512 2.116z" class="cls-3" transform="translate(-267.559 -234.79)"/>
            <path id="Trazado_77" d="M272.946 238.571a7.037 7.037 0 0 1-1.3 1.27c-.432.212-1.729 2.117-2.377 2.117a4.092 4.092 0 0 0-1.3.847s-3.026 2.117-.432 1.482c0 0-1.3 1.905 0 .847 1.3-1.27 1.513-2.752 4.538-5.081-.216 0 1.729-1.906.864-1.482" class="cls-3" transform="translate(-266.03 -237.771)"/>
            <path id="Trazado_78" d="M280.21 260.128s5.619-1.905 7.132-2.54l1.513-.635s-3.458 1.058-4.322 1.482a35.341 35.341 0 0 0-4.323 1.693z" class="cls-3" transform="translate(-276.968 -252.553)"/>
            <path id="Trazado_79" d="M309.01 249.909a2.681 2.681 0 0 0 .648-.423 2.681 2.681 0 0 1-.648.423z" class="cls-3" transform="translate(-299.933 -246.569)"/>
            <path id="Trazado_80" d="M291.566 241.561l-3.89 3.811s2.161-1.482 3.242-2.117c.432-.212.648-.423.864-.423-.864.423-2.377 1.27-2.809 1.482a2.131 2.131 0 0 1 1.081-1.27 12.828 12.828 0 0 1 1.729-1.058l-1.08.212a3.858 3.858 0 0 1 3.025-.635l-.216-.212a5.953 5.953 0 0 0-1.945 0 2.688 2.688 0 0 1 1.08-.423c.216 0 .216-.423-.216-.212a3.008 3.008 0 0 1-.865.845z" class="cls-3" transform="translate(-282.922 -239.491)"/>
            <path id="Trazado_81" d="M286.61 262.065l.865-.847z" class="cls-3" transform="translate(-282.072 -255.973)"/>
            <path id="Trazado_82" d="M270.476 268.661a21.772 21.772 0 0 1-4.106-.423l2.161-.212c2.161-.212.216-1.058-1.08-.847-.865.212.216-.847 1.08-1.694-1.08.847-2.377 2.329-2.81 2.54a18.455 18.455 0 0 0-1.513 2.54 19.82 19.82 0 0 1 3.242 2.329c.432.635.865.423.865.423-.865-.212-.865-.847-.648-1.482a3.062 3.062 0 0 1 1.513-2.117z" class="cls-3" transform="translate(-264.209 -259.393)"/>
        </g>
        <g id="Grupo_30" transform="translate(121.809 9.504)">
            <path id="Trazado_83" d="M281.953 123.162s1.081 3.387 3.458 3.387a28.134 28.134 0 0 0-1.945 5.5 14.816 14.816 0 0 1-2.593 5.081l-.432.423a3.192 3.192 0 0 0-1.3-.212l1.081 1.482.432 2.329.648.635.648-.212a8.66 8.66 0 0 0 .865-1.905 3.046 3.046 0 0 1 .432-.635 2.989 2.989 0 0 0 .432-.847 22.331 22.331 0 0 1 2.161-3.6 23.381 23.381 0 0 0 3.025-5.928s1.3-1.482 0-4.234-2.593-5.081-2.593-5.081l-1.945.212z" class="cls-6" transform="translate(-247.268 -105.167)"/>
            <path id="Trazado_84" d="M221.355 48.1v.635a9.838 9.838 0 0 1 0 2.54 1.909 1.909 0 0 1-1.945 1.058v6.137h11.89l-2.6-4.87-1.942-1.9-1.945-3.811z" class="cls-6" transform="translate(-199.636 -47.885)"/>
            <path id="Trazado_85" d="M133.371 116.962s-.865 4.446-4.538 4.022c0 0 2.161 3.811 3.458 6.775a5.8 5.8 0 0 0 4.322 3.6 6.2 6.2 0 0 1 1.729-.212 4.293 4.293 0 0 0 1.729.212h1.513a11.841 11.841 0 0 1 2.593.847.785.785 0 0 1 .432.635c0 .423-.648.423-.648.423l-1.729-.635-.648-.212-1.513.212h1.3l2.809 1.058s.648.423.216.847c-.216.635-.865 0-.865 0l-2.161-.847-1.729-.212s-.432 0 0 .212a2.666 2.666 0 0 1 1.08.212l2.593 1.058a.461.461 0 0 1 .216.635c-.216.423-.865.212-.865.212l-2.377-.847s-1.3-.212-1.513.423c0 0 0 .423.216.423l.432.212 1.945 1.058s.216.423 0 .635a1.063 1.063 0 0 1-.865 0l-1.945-1.27a2.666 2.666 0 0 0-1.08-.212 8.893 8.893 0 0 1-2.161-.635s-1.945-1.058-2.161-1.694a2.367 2.367 0 0 0-1.08-1.058s-6.267-4.446-8.212-8.045c0 0-1.3-1.482-1.729-1.905a1.261 1.261 0 0 1 0-1.694c.432-.635 1.945-3.176 2.593-4.022s1.729-2.964 3.242-3.6 3.242 1.694 3.242 1.694l2.161 1.694z" class="cls-6" transform="translate(-121.809 -100.449)"/>
        </g>
        <path id="Trazado_86" d="M170.419 69.3a3.373 3.373 0 0 1-1.945 4.022 9.941 9.941 0 0 1-2.377-1.482c-1.3-1.058-3.89-2.752-3.025-3.176 0 0-.865-.423-1.3.212a17.078 17.078 0 0 0-1.945.635c-.865.423-1.729.423-2.377 1.058a1.1 1.1 0 0 1-1.08.212.67.67 0 0 0-.865.423 1.826 1.826 0 0 0-1.3.847s-1.945 1.058-2.377 2.117c0 0-.648-.212-1.08 1.058 0 0 .216.212-.216.212s-.648.635-.648.635 0 .212-.432.212-.216.423-.216.423l-1.3 1.058v.212s3.89 4.234 5.835 4.658l.865-1.058s.432 0 .648-.635a17.855 17.855 0 0 1 1.3 2.752c.216.847.648 2.117.648 2.117s.648 3.6.865 5.081.648 3.176 1.729 3.811c0 0 .432.423 0 1.27l.216 1.694s6.051 2.752 8.428 1.27l4.538.635s-.216-.635.216-.212 1.729 1.27 2.377.423c0 0 0-3.6-.648-4.446 0 0 .432-4.022.432-5.293s.648-2.329 0-5.081a14.15 14.15 0 0 1 .216-2.54l1.3 1.27.432-.212s4.322.635 4.754-4.234a6.763 6.763 0 0 1-1.3-1.694 14.082 14.082 0 0 0-3.458-4.658 3.1 3.1 0 0 0-2.161-1.27c.222-.213-4.101-2.326-4.749-2.326z" class="cls-5" transform="translate(-20.84 -54.923)"/>
        <g id="Grupo_31" transform="translate(133.803 21.995)">
            <path id="Trazado_88" d="M194.786 123.141c-2.377-2.117-2.161-2.329-.648-1.482s3.242.423.865-.212c-2.377-.847-.865-1.482-4.322-4.022-3.242-2.54 3.025-1.482 3.025-1.482-.432 0-.648-.212-1.08-.212a6.16 6.16 0 0 0-6.7 1.694 1.926 1.926 0 0 0-.648 1.058 13.987 13.987 0 0 1 1.3 2.54c.216.847.648 2.117.648 2.117s.648 3.6.865 5.081a1.253 1.253 0 0 0 .216.847c1.945 1.27 0-8.045 0-8.045a15.823 15.823 0 0 0 2.593 4.446c-1.08-1.905-2.377-4.869-2.377-4.869l3.025 3.6s3.242 2.117 0-1.058c-3.025-3.176 1.513-.847 3.025.847 1.509 1.269 2.59 1.269.213-.848z" class="cls-7" transform="translate(-184.413 -114.461)"/>
            <path id="Trazado_90" d="M183.575 130.019l-.432.423s.216 0 .432-.423z" class="cls-7" transform="translate(-182.711 -126.208)"/>
        </g>
        <g id="Grupo_32" transform="translate(126.24 13.599)">
            <path id="Trazado_91" d="M151.24 115.476a3.79 3.79 0 0 1-1.513 1.694c-2.161-1.058-5.4-4.446-5.835-4.869l-.216-.212a3.356 3.356 0 0 1 1.729-1.27c1.513 1.482 4.106 4.022 5.4 4.446z" class="cls-1" transform="translate(-143.676 -102.423)"/>
            <path id="Trazado_92" d="M295.226 118.912c-.865 1.694-2.161 3.6-4.322 4.234h-.432l-1.729-1.482a3.114 3.114 0 0 1 1.3-.423h.216a6.5 6.5 0 0 0 3.458-4.022l.648.635z" class="cls-1" transform="translate(-259.352 -107.552)"/>
            <path id="Trazado_93" d="M216.21 68.869c0 1.058 1.08 1.905 3.025 3.387.216.212.432.423.648.423a9.008 9.008 0 0 0 2.593 1.482l.432.212.648-.212a4.654 4.654 0 0 0 2.809-4.446 8.611 8.611 0 0 0-1.3-.423 3.373 3.373 0 0 1-1.945 4.022 9.942 9.942 0 0 1-2.377-1.482c-1.3-1.058-3.89-2.752-3.025-3.176a1.3 1.3 0 0 0-1.508.213z" class="cls-1" transform="translate(-201.514 -68.518)"/>
        </g>
        <path id="Trazado_106" d="M259.322 258.809a2.675 2.675 0 0 0 .648.423v-.423c0-2.964-2.161-8.257-2.161-8.257a24.241 24.241 0 0 1 .865 9.527z" class="cls-3" transform="translate(-108.446 -200.824)"/>
        <path id="Trazado_94" d="M201.806 204.738L199 203.68h-1.3l1.513-.212.648.212 1.729.635s.648.212.648-.423-.432-.635-.432-.635a17.262 17.262 0 0 0-2.593-.847H197.7a4.85 4.85 0 0 1-1.729-.212c-.216-.212-1.3 0-1.729.212h-.432v4.869a2.392 2.392 0 0 0 1.08.212 2.666 2.666 0 0 1 1.08.212l1.945 1.27s.648.423.865 0c.432-.212 0-.635 0-.635l-1.945-1.058-.432-.212c-.432-.212-.216-.423-.216-.423.216-.635 1.513-.423 1.513-.423l2.377.847s.648.423.865-.212a.461.461 0 0 0-.216-.635l-2.593-1.058a2.666 2.666 0 0 0-1.08-.212c-.648 0 0-.212 0-.212l1.729.212 2.161.847s.648.423.865 0a.806.806 0 0 0-.002-1.061z" class="cls-6" transform="translate(-57.413 -161.997)"/>
        <path id="Trazado_95" d="M232.43 15.43a1.139 1.139 0 0 1 .865 1.058c-.216.847 0 1.058 0 1.058a2.074 2.074 0 0 1-.216.847c-.216.424-.216 1.058-.648.847a5.91 5.91 0 0 1-1.513 3.811 2.35 2.35 0 0 1-1.729 1.482 3.964 3.964 0 0 1-3.025-.847A5.616 5.616 0 0 1 224 19.452s-.216.423-.432.212-.432-.423-.216-.847a8.7 8.7 0 0 1-.432-1.27s-.432-.847 0-1.27a2.65 2.65 0 0 1 .432-1.27s-.648-3.387 3.458-3.387h4.754c.216 0 .648.847.648.847l.432 1.27z" class="cls-4" transform="translate(-80.473 -9.313)"/>
        <path id="Trazado_96" d="M230.47 2.941c.865-.423 1.08 1.482 1.08 1.482a2.031 2.031 0 0 0 .432 1.694s.216 2.117.216 2.329v.212s.216 0 .216-.635a1.221 1.221 0 0 1 .216-.847s.216 0 .216-1.27c-.216-1.27-.216-4.446-3.89-5.716a2.908 2.908 0 0 0-2.809.423 4.2 4.2 0 0 0-3.242 2.964c-.648 2.752-.432 3.387-.432 3.387a1.57 1.57 0 0 1 .865 1.27c0 .635 0 1.058.432 1.27 0 0-.432-2.117 0-2.752a2 2 0 0 0 .432-1.905s0-1.482 1.3-1.482a6.869 6.869 0 0 0 4.968-.424z" class="cls-8" transform="translate(-80.242)"/>
        <path id="Trazado_97" d="M303.894 431.885s-.216.635 0 .847a1.03 1.03 0 0 1 .216.635l1.08.635.216-.423s.865 0 .865.423v.423l.648.212.216-.212h.216l.216-.212a15.868 15.868 0 0 1 3.025 1.27l.432.635h.648l.216-.212.432.212v.635h.648l.216-.212h.648l.216.423h.648l.216-.212s1.081.212 1.081 0v.423h.648l.648-.423s1.513 0 1.513-.635l-3.242-.635-11.882-3.382z" class="cls-9" transform="translate(-145.022 -346.167)"/>
        <path id="Trazado_98" d="M319.236 418.64s-4.97.212-6.267-.212a18.372 18.372 0 0 1-2.161-.847s-1.945-.847-3.89-1.482a26.841 26.841 0 0 1-2.81-1.058c-.216-.212-.432-.423-.432-.635a6.359 6.359 0 0 1 1.729-4.234.3.3 0 0 1 .432 0v.212c0 .212.216.847 0 1.058 0 .635 1.513.635 1.729.635a6.32 6.32 0 0 1 2.593-.423l.432-.847s.216-.423.432-.423.432.635.432.635.216.635.432.635a.4.4 0 0 1-.216.635l.865.847c.432.423.432.635.432.635s1.08.423 1.3 1.058c.432.635 2.809 1.694 4.106 1.905a1.334 1.334 0 0 1 .862 1.906z" class="cls-8" transform="translate(-145.02 -328.688)"/>
        <path id="Trazado_99" d="M205.124 371.085s0 .635.865 1.058 3.674 1.694 4.538.847v1.91c0 .635.648 4.658.648 6.775s.216 5.716.648 6.775 1.729 3.811 1.729 3.811l-2.81 1.905s-1.513.212-1.513 0l-.216-2.54a9.4 9.4 0 0 0-.216-1.694c-.432-1.058-1.945-5.293-1.945-5.293-1.3-3.176-2.377-6.563-2.377-9.315l.432-2.117a1.62 1.62 0 0 1 0-1.058 3.632 3.632 0 0 0 .217-1.064z" class="cls-1" transform="translate(-65.917 -297.434)"/>
        <g id="Grupo_33" transform="translate(138.774 74.921)">
            <path id="Trazado_100" d="M211.378 378.967c-1.513.635-3.025 0-3.89-.212a6.143 6.143 0 0 1-1.945-1.27v.847a6.893 6.893 0 0 0 3.242 1.905 3.18 3.18 0 0 0 2.593-.212z" class="cls-5" transform="translate(-205.543 -377.485)"/>
            <path id="Trazado_101" d="M207.258 411.17c2.161.847 4.97.847 5.619-.847a5.746 5.746 0 0 0-.216-1.905c-.216.423-.648.847-2.161 1.27a5.637 5.637 0 0 1-3.89-.635c.215.847.431 1.482.648 2.117z" class="cls-5" transform="translate(-206.393 -402.279)"/>
        </g>
        <path id="Trazado_102" d="M230.076 500.143a4.814 4.814 0 0 0 1.08 1.058l.216.423.432.212.216-.423.432.212v.423h.648v-.212h.648l.216.423h.648l.648-.423s.864 0 1.08-.212l.216.423.648-.212v-.423a1.23 1.23 0 0 0 .432-1.482 1.542 1.542 0 0 0-1.3-.847l-2.809.423z" class="cls-9" transform="translate(-86.332 -400.029)"/>
        <g id="Grupo_34" transform="translate(142.413 93.551)">
            <path id="Trazado_103" d="M224.188 471.987a4.23 4.23 0 0 1 .216 1.058c0 .423 0 .423.432.212s.865-.423 1.08-.212c0 0 .432-1.482 1.3-1.694a2.407 2.407 0 0 1 1.513.635s.216 0 .432.423a2.625 2.625 0 0 0 .432.635 2.6 2.6 0 0 0 .648 2.117c.865.847 2.377 2.752 1.513 3.387a21.32 21.32 0 0 1-2.593.423c-.648 0-3.025 0-3.89-.635a2.131 2.131 0 0 1-1.08-1.27 3.715 3.715 0 0 1-.648-2.329 13.66 13.66 0 0 0 .645-2.75z" class="cls-8" transform="translate(-223.505 -471.352)"/>
            <path id="Trazado_104" d="M232.818 480.471a21.318 21.318 0 0 1-2.593.423c-.648 0-3.025 0-3.89-.635a2.13 2.13 0 0 1-1.08-1.27 3.715 3.715 0 0 1-.648-2.329c.216-1.058.432-2.752.432-2.752a4.23 4.23 0 0 1 .216 1.058c0 .423 0 .423.432.212s.865-.423 1.08-.212a.649.649 0 0 1 .216-.423c.216-.423.648-1.058 1.08-1.058a1.669 1.669 0 0 1 1.08.423l.432.423s.216 0 .432.423a2.626 2.626 0 0 0 .432.635 2.6 2.6 0 0 0 .648 2.117c1.083.425 2.596 2.119 1.731 2.965z" class="cls-8" transform="translate(-224.356 -473.062)"/>
        </g>
        <g id="Grupo_35" transform="translate(144.825 49.728)">
            <path id="Trazado_105" fill="#344a5e" d="M238.218 476.865c-.864.423-2.377-2.752-2.809-3.387.216-.423.648-1.058 1.08-1.058a1.669 1.669 0 0 1 1.08.423c.216.847.865 2.329 1.08 2.964.651.423.651.634-.431 1.058z" transform="translate(-235.409 -428.384)"/>
        </g>
    </g>
</svg>
