<svg xmlns="http://www.w3.org/2000/svg" width="194" height="194" viewBox="0 0 194 194">
    <defs>
        <style>
            .cls-2{fill:#ffbb7d}.cls-8{fill:#d6cfbd}
        </style>
    </defs>
    <g id="repartidor">
        <path id="Trazado_459" fill="#fff" d="M194 97a96.576 96.576 0 0 1-19.635 58.518C156.655 178.9 128.589 152.7 97 152.7s-59.655 26.2-77.365 2.819A97 97 0 1 1 194 97z" opacity="0.88"/>
        <g id="Grupo_313" transform="translate(19.635 5.747)">
            <path id="Trazado_461" d="M199.97 257.238h42.46v45.029h-42.46z" class="cls-2" transform="translate(-143.835 -165.516)"/>
            <path id="Trazado_462" fill="#efa36a" d="M256 257.241h21.23v45.029H256z" transform="translate(-178.635 -165.518)"/>
            <path id="Trazado_463" fill="#ffea92" d="M209.211 336.616h-28.544v-15.908h19.842a8.7 8.7 0 0 1 8.7 8.7v7.205z" transform="translate(-131.846 -204.937)"/>
            <path id="Trazado_464" fill="#f7d854" d="M256 336.616h28.544v-15.908H264.7a8.7 8.7 0 0 0-8.7 8.7v7.205z" transform="translate(-178.634 -204.937)"/>
            <path id="Trazado_465" fill="#4779f4" d="M206.55 374.764a97.01 97.01 0 0 1-154.73 0A29.269 29.269 0 0 1 80.105 353h98.163a29.253 29.253 0 0 1 28.282 21.764z" transform="translate(-51.82 -224.993)"/>
            <path id="Trazado_466" fill="#2357cc" d="M333.365 374.764A96.849 96.849 0 0 1 256 413.246V353h49.084a29.253 29.253 0 0 1 28.281 21.764z" transform="translate(-178.635 -224.993)"/>
            <path id="Trazado_467" d="M306.155 396.725h29.623v13.446h-29.623z" class="cls-8" transform="translate(-209.786 -252.15)"/>
            <path id="Trazado_468" fill="#ffd4a6" d="M222.7 89.825c-1.5-22.751-19.9-31.159-35.473-31.159s-33.975 8.408-35.473 31.159c-4.027.779-6.887 6.061-6.437 10.331l.69 9.718a8.038 8.038 0 0 0 8.758 7.271l.749-.081c8.9 23.895 22.854 26.386 31.712 27.785 8.858-1.4 22.814-3.89 31.712-27.785l.749.081a8.038 8.038 0 0 0 8.758-7.271l.69-9.718c.451-4.27-2.41-9.552-6.437-10.331z" transform="translate(-109.86 -42.184)"/>
            <path id="Trazado_469" d="M297.91 100.155l-.69 9.718a8.038 8.038 0 0 1-8.758 7.271l-.749-.081c-3.041 8.157-6.67 13.823-10.482 17.8-7.353 7.669-15.4 9.065-21.23 9.987V58.666c15.572 0 33.975 8.408 35.473 31.159 4.026.775 6.887 6.06 6.436 10.33z" class="cls-2" transform="translate(-178.635 -42.184)"/>
            <path id="Trazado_470" fill="#d36c18" d="M202.281 35.755l-6.586-.338-6.586.338a31.4 31.4 0 0 0-28.887 40.388l3.761 14.089 5.82-12.883h51.784l5.82 12.883 3.761-14.089a31.4 31.4 0 0 0-28.887-40.388z" transform="translate(-118.33 -27.744)"/>
            <path id="Trazado_471" fill="#ad4b07" d="M292.788 67.123a31.684 31.684 0 0 1-1.315 9.022l-3.763 14.088-5.82-12.883H256V35.42l6.585.337a31.378 31.378 0 0 1 30.2 31.366z" transform="translate(-178.635 -27.746)"/>
            <path id="Trazado_472" fill="#ff4571" d="M216.5 22.361l-14.242-5.674a21.4 21.4 0 0 0-15.838 0l-14.242 5.674a21.4 21.4 0 0 0-13.312 17.233l-2.147 17.253 37.62-2.024 37.619 2.025-2.147-17.253A21.394 21.394 0 0 0 216.5 22.361z" transform="translate(-116.97 -15.167)"/>
            <path id="Trazado_473" fill="#e52541" d="M293.618 56.85L256 54.823V15.17a21.411 21.411 0 0 1 7.919 1.519l14.243 5.672a21.4 21.4 0 0 1 13.311 17.233l2.057 16.57z" transform="translate(-178.635 -15.169)"/>
            <path id="Trazado_474" fill="#efebdc" d="M211.53 189.746a11.6 11.6 0 0 0-15.024 0 28.375 28.375 0 0 1-17.232 6.734l-6.969.282.467 2.809a31.674 31.674 0 0 0 31.245 26.479 33.878 33.878 0 0 0 31.543-28.27l.169-1.019-6.969-.282a28.375 28.375 0 0 1-17.231-6.734z" transform="translate(-126.652 -121.881)"/>
            <path id="Trazado_475" d="M287.711 196.76l-.167 1.019c-1.3 7.824-4.733 15.1-10.314 20.1s-13.311 7.733-21.23 8.169V186.98a11.569 11.569 0 0 1 7.514 2.762 28.339 28.339 0 0 0 17.229 6.733z" class="cls-8" transform="translate(-178.635 -121.879)"/>
            <path id="Trazado_476" fill="#7b7284" d="M187.311 89.417a66.1 66.1 0 0 0-40.246 13.192 4.192 4.192 0 0 0 2.188 7.511l36.027 3.08a23.828 23.828 0 0 0 4.061 0l36.027-3.081a4.192 4.192 0 0 0 2.188-7.511 66.1 66.1 0 0 0-40.245-13.191z" transform="translate(-109.946 -61.283)"/>
            <path id="Trazado_477" fill="#635a6d" d="M294.057 110.123l-36.026 3.077c-.674.057-1.353.087-2.031.087V89.42a66.348 66.348 0 0 1 37.531 11.25c.974.659 1.879 1.311 2.713 1.94a4.2 4.2 0 0 1-2.187 7.513z" transform="translate(-178.635 -61.285)"/>
        </g>
    </g>
</svg>
